<?xml version="1.0" encoding="UTF-8" standalone="no"?>
<!-- Created with Inkscape (http://www.inkscape.org/) -->

<svg
   id="svg5"
   version="1.1"
   viewBox="0 0 43.900089 50.804272"
   height="50.804272mm"
   width="43.900089mm"
   xmlns:xlink="http://www.w3.org/1999/xlink"
   xmlns="http://www.w3.org/2000/svg"
   xmlns:svg="http://www.w3.org/2000/svg">
  <defs
     id="defs2">
    <linearGradient
       id="linearGradient66151">
      <stop
         style="stop-color:#37b7ec;stop-opacity:1"
         offset="0"
         id="stop66137" />
      <stop
         style="stop-color:#4dbac6;stop-opacity:1"
         offset="0.16599999"
         id="stop66139" />
      <stop
         style="stop-color:#63bb9e;stop-opacity:1"
         offset="0.33000001"
         id="stop66141" />
      <stop
         style="stop-color:#86b876;stop-opacity:1"
         offset="0.49682748"
         id="stop66143" />
      <stop
         style="stop-color:#b3ae60;stop-opacity:1"
         offset="0.66600001"
         id="stop66145" />
      <stop
         style="stop-color:#d8a05f;stop-opacity:1"
         offset="0.833"
         id="stop66147" />
      <stop
         style="stop-color:#f6906d;stop-opacity:1"
         offset="1"
         id="stop66149" />
    </linearGradient>
    <rect
       x="203.90227"
       y="233.50584"
       width="237.13077"
       height="78.842209"
       id="rect43988" />
    <rect
       x="201.18356"
       y="251.63049"
       width="142.88261"
       height="60.71756"
       id="rect42318" />
    <rect
       x="199.97525"
       y="227.76637"
       width="157.38232"
       height="62.530025"
       id="rect36994" />
    <rect
       x="179.73605"
       y="292.41095"
       width="151.34079"
       height="32.322285"
       id="rect29428" />
    <rect
       x="177.62152"
       y="281.23407"
       width="154.36156"
       height="34.134747"
       id="rect23420" />
    <linearGradient
       id="linearGradient18768">
      <stop
         style="stop-color:#d1bfff;stop-opacity:1;"
         offset="0"
         id="stop18766" />
    </linearGradient>
    <linearGradient
       id="linearGradient2900">
      <stop
         style="stop-color:#fff27f;stop-opacity:1;"
         offset="0"
         id="stop2898" />
    </linearGradient>
    <linearGradient
       xlink:href="#linearGradient66151"
       id="linearGradient65484"
       gradientUnits="userSpaceOnUse"
       x1="198.16281"
       y1="368.53445"
       x2="323.827"
       y2="141.37224"
       spreadMethod="pad" />
    <rect
       x="203.90227"
       y="233.50584"
       width="237.13077"
       height="78.842209"
       id="rect43988-0" />
    <rect
       x="203.90227"
       y="233.50584"
       width="237.13077"
       height="78.842209"
       id="rect43988-05" />
    <rect
       x="203.90227"
       y="233.50584"
       width="237.13077"
       height="78.842209"
       id="rect43988-0-4" />
    <rect
       x="203.90227"
       y="233.50584"
       width="237.13077"
       height="78.842209"
       id="rect43988-5" />
    <rect
       x="203.90227"
       y="233.50584"
       width="237.13077"
       height="78.842209"
       id="rect43988-5-8" />
    <rect
       x="203.90227"
       y="233.50584"
       width="237.13077"
       height="78.842209"
       id="rect43988-5-87" />
    <rect
       x="203.90227"
       y="233.50584"
       width="237.13077"
       height="78.842209"
       id="rect43988-0-4-3" />
    <rect
       x="203.90227"
       y="233.50584"
       width="237.13077"
       height="78.842209"
       id="rect43988-0-4-2" />
  </defs>
  <g
     id="layer1"
     transform="translate(-124.27449,-53.128093)">
    <text
       xml:space="preserve"
       transform="scale(0.26458333)"
       id="text23418"
       style="font-size:37.3333px;line-height:1.25;font-family:Raleway;-inkscape-font-specification:'Raleway, Normal';letter-spacing:0px;word-spacing:0px;white-space:pre;shape-inside:url(#rect23420)"><tspan
         x="177.62109"
         y="349.92788"
         id="tspan436"><tspan
           dx="0 7.9786386 17.218643 15.869328 0 17.101318 17.218639 17.101318"
           style="font-size:29.3333px"
           id="tspan434">leaflend</tspan></tspan></text>
    <text
       xml:space="preserve"
       transform="scale(0.26458333)"
       id="text29426"
       style="font-size:32px;line-height:1.25;font-family:Raleway;-inkscape-font-specification:'Raleway, Normal';letter-spacing:0px;word-spacing:0px;white-space:pre;shape-inside:url(#rect29428)"><tspan
         x="179.73633"
         y="354.35423"
         id="tspan440"><tspan
           dx="0 8.7039795 8.7039795 18.624023 0 18.656006 17.312012"
           style="fill:#ffffff"
           id="tspan438">lleflaf</tspan></tspan></text>
    <text
       xml:space="preserve"
       transform="scale(0.26458333)"
       id="text36992"
       style="font-size:37.3333px;line-height:1.25;font-family:Raleway;-inkscape-font-specification:'Raleway, Normal';letter-spacing:0px;word-spacing:0px;white-space:pre;shape-inside:url(#rect36994)"><tspan
         x="199.97461"
         y="324.85562"
         id="tspan444"><tspan
           dx="0 10.989324 20.765385 19.76001 0 22.776009 20.765381 21.978714 20.765381 20.93869"
           style="font-weight:bold;font-size:34.6667px;-inkscape-font-specification:'Raleway Bold';fill:#ffffff"
           id="tspan442">leaflegend</tspan></tspan></text>
    <text
       xml:space="preserve"
       transform="scale(0.26458333)"
       id="text42316"
       style="font-size:18.6667px;line-height:1.25;font-family:Raleway;-inkscape-font-specification:'Raleway, Normal';letter-spacing:0px;word-spacing:0px;white-space:pre;shape-inside:url(#rect42318)" />
    <g
       id="g369">
      <path
         style="mix-blend-mode:normal;fill:url(#linearGradient65484);fill-opacity:1;stroke:#ffffff;stroke-width:5.82242;stroke-linejoin:round;stroke-miterlimit:4;stroke-dasharray:none;stroke-opacity:1"
         id="path872-6"
         transform="matrix(-0.00369959,0.19137004,-0.19017726,-0.00373786,195.67644,29.536603)"
         d="M 198.16281,368.53444 131.21473,257.3297 194.04683,143.74859 323.827,141.37223 390.77507,252.57698 327.94298,366.15808 Z" />
      <g
         id="g355">
        <text
           xml:space="preserve"
           transform="matrix(0.1888195,3.8461316e-4,-3.8461316e-4,0.1888195,90.84281,40.982648)"
           id="text43986-4-3-4"
           style="font-style:normal;font-variant:normal;font-weight:bold;font-stretch:normal;font-size:34.6667px;line-height:1.25;font-family:Raleway;-inkscape-font-specification:'Raleway Bold';letter-spacing:0px;word-spacing:0px;white-space:pre;shape-inside:url(#rect43988-0-4-2);fill:#ffffff;fill-opacity:1"><tspan
             x="203.90234"
             y="265.59618"
             id="tspan446">leaflegend</tspan></text>
        <g
           id="g78248-5-7"
           transform="matrix(0.71351444,0.01390831,-0.01390831,0.71351444,31.532667,27.87589)">
          <rect
             style="fill:#ffffff;fill-opacity:0.3;stroke:#fcfcfc;stroke-width:1;stroke-linejoin:round;stroke-miterlimit:4;stroke-dasharray:none;stroke-opacity:1"
             id="rect59755-9-0-1"
             width="35.714573"
             height="28.994789"
             x="143.28683"
             y="50.600388"
             rx="1.2310007"
             ry="1.2339345"
             transform="rotate(-1)" />
          <rect
             style="fill:#ffffff;fill-opacity:0.3;stroke:#fcfcfc;stroke-width:0.806934;stroke-linejoin:round;stroke-miterlimit:4;stroke-dasharray:none;stroke-opacity:1"
             id="rect59536-0-1-1"
             width="20.475191"
             height="1.5796378"
             x="155.46024"
             y="61.775127"
             rx="1.0007077"
             ry="0.5812968" />
          <rect
             style="fill:#ffffff;fill-opacity:0.3;stroke:#fcfcfc;stroke-width:0.806934;stroke-linejoin:round;stroke-miterlimit:4;stroke-dasharray:none;stroke-opacity:1"
             id="rect59536-5-9-8-5"
             width="20.475191"
             height="1.5796378"
             x="155.60248"
             y="52.699188"
             rx="1.0007077"
             ry="0.5812968" />
          <rect
             style="fill:#ffffff;fill-opacity:0.3;stroke:#fcfcfc;stroke-width:0.806934;stroke-linejoin:round;stroke-miterlimit:4;stroke-dasharray:none;stroke-opacity:1"
             id="rect59536-4-2-0-4"
             width="20.475191"
             height="1.5796378"
             x="155.79121"
             y="70.851067"
             rx="1.0007077"
             ry="0.5812968" />
          <path
             class="st0"
             d="m 153.42995,73.010002 c -0.12193,0.07657 -0.25996,0.09572 -0.25996,0.09572 0,0 0.18036,-0.4111 0.24384,-0.596498 0.0635,-0.184391 0.14811,-0.733533 0.14811,-0.733533 0,0 -0.0917,0.06246 -0.1864,0.127966 -0.0947,0.06551 -0.16223,0.120917 -0.16223,0.120917 0,0 0.0403,-0.442335 0.0212,-0.724463 -0.0202,-0.282127 -0.0856,-0.68416 -0.0856,-0.68416 0,0 -0.0836,0.123934 -0.15618,0.216634 -0.0726,0.09269 -0.19648,0.233764 -0.19648,0.233764 0,0 -0.0131,-0.514884 -0.11285,-0.812126 -0.0987,-0.297242 -0.3184,-0.829254 -0.3184,-0.829254 0,0 -0.0625,0.120906 -0.13603,0.217642 -0.0736,0.09674 -0.15819,0.112848 -0.15819,0.112848 0,0 0.007,-0.413117 -0.0534,-0.614636 -0.0615,-0.20152 -0.24082,-0.609597 -0.24082,-0.609597 0,0 -0.12192,0.243839 -0.19547,0.337545 -0.0726,0.09269 -0.18137,0.171293 -0.18137,0.171293 0,0 -0.1199,-0.420169 -0.25694,-0.670053 -0.13602,-0.250893 -0.46954,-0.619675 -0.46954,-0.619675 0,0 -0.14711,0.23074 -0.24384,0.421176 -0.0967,0.190437 -0.17129,0.524959 -0.17129,0.524959 0,0 -0.0826,-0.0051 -0.17633,-0.10176 -0.0937,-0.09674 -0.11889,-0.20152 -0.11889,-0.20152 0,0 -0.11386,0.350645 -0.17331,0.564255 -0.0594,0.213611 -0.13099,0.579371 -0.13099,0.579371 0,0 -0.0504,-0.03124 -0.14207,-0.14308 -0.0907,-0.112848 -0.12595,-0.206558 -0.12595,-0.206558 0,0 -0.16424,0.512868 -0.21361,0.756708 -0.0494,0.243839 -0.0726,0.602545 -0.0726,0.602545 0,0 -0.12293,-0.0786 -0.1985,-0.135018 -0.0746,-0.05643 -0.23175,-0.236786 -0.23175,-0.236786 0,0 -0.12796,0.39397 -0.13804,0.626726 -0.009,0.232755 0.0534,0.563248 0.0534,0.563248 0,0 -0.0403,0.04736 -0.14308,-0.001 -0.10278,-0.04736 -0.14812,-0.115878 -0.14812,-0.115878 0,0 -0.0846,0.319408 -0.0635,0.58743 0.0212,0.268022 0.16122,0.553173 0.16122,0.553173 0,0 -0.0625,0.04533 -0.14107,0.03124 -0.0786,-0.01511 -0.23477,-0.12595 -0.23477,-0.12595 0,0 0.13401,0.435282 0.2388,0.629748 0.1048,0.193461 0.26299,0.376845 0.26299,0.376845 0,0 -0.0443,0.03829 -0.1451,0.03829 -0.10076,0.001 -0.18741,-0.04736 -0.18741,-0.04736 0,0 0.11084,0.365759 0.42924,0.63781 0.3184,0.271045 0.54309,0.334524 0.54309,0.334524 0,0 0.0202,0.01914 -0.14408,0.09068 -0.16424,0.07154 -0.29322,0.06549 -0.29322,0.06549 0,0 0.89475,0.597507 1.88623,0.746632 0.0796,-0.219657 0.13905,-0.446367 0.18238,-0.678115 -0.43428,-0.149126 -0.73253,-0.380872 -0.88367,-0.547127 -0.16625,-0.183384 -0.50178,-0.576348 -0.57332,-0.789957 0.12796,0.175322 0.54309,0.574332 0.85545,0.805072 0.27709,0.204542 0.31941,0.209581 0.6368,0.326462 0.0232,-0.149125 0.0403,-0.299257 0.0534,-0.450397 0.0181,-0.204542 0.0282,-0.410094 0.0322,-0.616651 -0.33049,-0.13401 -0.67811,-0.30631 -0.88165,-0.542088 -0.22167,-0.25593 -0.4645,-0.57937 -0.51488,-0.777866 0.10076,0.181367 0.47055,0.610604 0.76275,0.818169 0.24485,0.173308 0.40304,0.208573 0.6358,0.294219 0,-0.220664 -0.006,-0.441329 -0.0171,-0.661992 -0.001,-0.134011 -0.004,-0.268022 -0.009,-0.402032 -0.22167,-0.131995 -0.44939,-0.294219 -0.56123,-0.489693 -0.12091,-0.211597 -0.24787,-0.476595 -0.25291,-0.628744 0.0443,0.145095 0.24787,0.499772 0.42823,0.682146 0.13804,0.140056 0.24283,0.186406 0.37886,0.258953 -0.0312,-0.710357 -0.1068,-1.421723 -0.22268,-2.126034 0.21562,0.800034 0.37684,1.617196 0.48062,2.446451 0.17835,-0.108826 0.30732,-0.172299 0.48869,-0.362737 0.22671,-0.237792 0.49372,-0.68819 0.55821,-0.86855 -0.0191,0.186407 -0.18943,0.519923 -0.34964,0.788951 -0.14408,0.241824 -0.41311,0.454428 -0.67711,0.630758 0.0202,0.374826 0.0272,0.751667 0.0131,1.12851 0.19346,-0.0937 0.3436,-0.159201 0.55821,-0.347622 0.28918,-0.253914 0.64789,-0.750661 0.74261,-0.954196 -0.0423,0.215626 -0.27609,0.586422 -0.49171,0.883663 -0.18641,0.25694 -0.50582,0.470549 -0.8212,0.645873 -0.003,0.0524 -0.007,0.104793 -0.011,0.157185 -0.0232,0.282128 -0.0584,0.565263 -0.11789,0.845377 0.25895,-0.0796 0.33553,-0.142073 0.66501,-0.3446 0.40405,-0.248877 0.69827,-0.618666 0.82623,-0.80205 -0.0655,0.210589 -0.42117,0.584408 -0.62773,0.78089 -0.19044,0.180361 -0.44536,0.348629 -0.90885,0.563248 -0.0302,0.121924 -0.0655,0.242832 -0.10681,0.362736 0.13905,0.0081 0.27911,0.0061 0.41715,-0.01011 1.22625,-0.137032 2.34368,-2.327553 2.34368,-2.327553 0,0 -0.0887,0.07758 -0.2116,0.153154 z"
             id="path67976-9-0-6"
             style="fill:#ffffff;stroke-width:0.0100759" />
          <path
             class="st0"
             d="m 150.65082,59.553919 c 0.0564,1.017617 -1.08714,2.603484 -1.15565,2.551093 0.19949,0.366745 0.97328,1.810549 1.21509,2.023141 -0.46448,-0.0937 -1.07907,-1.529446 -1.4841,-1.662442 -0.3194,1.520379 0.79897,2.355631 0.97731,3.53848 1.14356,-0.974288 1.49217,-3.028664 0.87857,-4.305218 1.03173,1.673524 0.42317,2.622627 -0.134,4.189353 0.82921,-0.655909 1.65438,-1.422648 2.20651,-2.696179 -0.33047,0.374805 -0.61359,0.696211 -0.87454,0.616615 0.75263,-0.768752 0.79696,-1.960673 0.47757,-2.918845 -0.19244,0.272037 -0.2146,0.591427 -0.39999,0.884622 0.24584,-1.415594 -1.01661,-3.210024 -2.58736,-3.219092 0.66195,0.328459 0.85641,0.5612 0.88059,0.998472 z"
             id="path68063-8-5-2"
             style="fill:#ffffff;stroke-width:0.0100754" />
          <path
             class="st0"
             d="m 148.72368,52.515055 c 0.15212,0.438265 1.37119,1.004481 1.41452,0.605507 0.0303,-0.281092 -1.34501,-0.526914 -1.23922,-1.136456 0,0 0,0 0,-10e-4 0.10477,-0.280087 0.22266,-0.561177 0.3355,-0.85436 0.0221,0.02521 0.69719,0.808018 0.83924,0.481579 0.13703,-0.312325 -0.65488,-0.396952 -0.60852,-1.147535 0.10179,-0.339526 0.18134,-0.703232 0.21458,-1.102201 0.24886,0.102761 0.48361,0.210566 0.70526,0.323406 0.0124,0.0051 0.0232,0.01106 0.0343,0.01713 0.47856,0.256913 0.12695,0.821112 0.30024,1.034703 0.1763,0.21963 0.36067,-0.207547 0.36975,-0.654875 0.44632,0.281092 0.8211,0.579312 1.13041,0.886596 0.48259,0.799949 -0.77376,1.757071 -0.5108,2.038161 0.26295,0.281092 0.85838,-0.529943 1.17373,-1.227127 0.29116,0.451361 0.46244,0.905741 0.537,1.336954 v 0 c 0,0.826143 -1.53341,1.536423 -1.43569,1.778224 0.0967,0.2418 1.21908,-0.468481 1.46893,-1.022605 -0.11284,1.228145 -1.0488,2.076446 -2.14596,1.76412 -0.006,0.0037 -0.0132,0.0086 -0.0191,0.01241 0,0.394939 -0.0232,0.784841 -0.0756,1.161644 l -0.16322,-1.025623 c -0.88055,0.423145 -1.7349,-0.02111 -2.17417,-1.003464 v 0 c 0.54405,0.448333 1.52636,0.365717 1.43065,0.09373 -0.1481,-0.424162 -1.01959,-0.100802 -1.67446,-0.91078 -0.0916,-0.525921 -0.0333,-0.993395 0.0927,-1.447774 z"
             id="path68159-3-5-2"
             style="fill:#ffffff;stroke-width:0.010075" />
        </g>
      </g>
    </g>
  </g>
  <style
     type="text/css"
     id="style60027">
	.st0{fill:#0B552E;}
</style>
  <style
     type="text/css"
     id="style67916">
	.st0{fill:#0B552E;}
</style>
  <style
     type="text/css"
     id="style67945">
	.st0{fill:#0B552E;}
</style>
  <style
     type="text/css"
     id="style67974">
	.st0{fill:#0B552E;}
</style>
  <style
     type="text/css"
     id="style68003">
	.st0{fill:#0B552E;}
</style>
  <style
     type="text/css"
     id="style68032">
	.st0{fill:#0B552E;}
</style>
  <style
     type="text/css"
     id="style68061">
	.st0{fill:#0B552E;}
</style>
  <style
     type="text/css"
     id="style68090">
	.st0{fill:#0B552E;}
</style>
  <style
     type="text/css"
     id="style68119">
	.st0{fill:#0B552E;}
</style>
  <style
     type="text/css"
     id="style68157">
	.st0{fill:#0B552E;}
</style>
</svg>
